<svg width="24" height="24" viewBox="0 0 24 24" fill="none" xmlns="http://www.w3.org/2000/svg">
<mask id="mask0_31_244" style="mask-type:alpha" maskUnits="userSpaceOnUse" x="0" y="0" width="24" height="24">
<rect width="24" height="24" fill="#D9D9D9"/>
</mask>
<g mask="url(#mask0_31_244)">
<path d="M5.5 15V10.5H4V9H7V15H5.5ZM9 15V12.5C9 12.2167 9.096 11.979 9.288 11.787C9.47933 11.5957 9.71667 11.5 10 11.5H12V10.5H9V9H12.5C12.7833 9 13.021 9.09567 13.213 9.287C13.4043 9.479 13.5 9.71667 13.5 10V11.5C13.5 11.7833 13.4043 12.0207 13.213 12.212C13.021 12.404 12.7833 12.5 12.5 12.5H10.5V13.5H13.5V15H9ZM15 15V13.5H18V12.5H16V11.5H18V10.5H15V9H18.5C18.7833 9 19.0207 9.09567 19.212 9.287C19.404 9.479 19.5 9.71667 19.5 10V14C19.5 14.2833 19.404 14.5207 19.212 14.712C19.0207 14.904 18.7833 15 18.5 15H15Z" fill="#4D4D4D"/>
</g>
</svg>
