<svg width="24" height="24" viewBox="0 0 24 24" fill="none" xmlns="http://www.w3.org/2000/svg">
<mask id="mask0_31_239" style="mask-type:alpha" maskUnits="userSpaceOnUse" x="0" y="0" width="24" height="24">
<rect width="24" height="24" fill="#D9D9D9"/>
</mask>
<g mask="url(#mask0_31_239)">
<path d="M9 21V19H6V17H8V7H6V5H9V3H11V5H13V3H15V5.125C15.8667 5.35833 16.5833 5.829 17.15 6.537C17.7167 7.24567 18 8.06667 18 9C18 9.48333 17.9167 9.94567 17.75 10.387C17.5833 10.829 17.35 11.225 17.05 11.575C17.6333 11.925 18.104 12.4 18.462 13C18.8207 13.6 19 14.2667 19 15C19 16.1 18.6083 17.0417 17.825 17.825C17.0417 18.6083 16.1 19 15 19V21H13V19H11V21H9ZM10 11H14C14.55 11 15.021 10.804 15.413 10.412C15.8043 10.0207 16 9.55 16 9C16 8.45 15.8043 7.979 15.413 7.587C15.021 7.19567 14.55 7 14 7H10V11ZM10 17H15C15.55 17 16.021 16.8043 16.413 16.413C16.8043 16.021 17 15.55 17 15C17 14.45 16.8043 13.979 16.413 13.587C16.021 13.1957 15.55 13 15 13H10V17Z" fill="#4D4D4D"/>
</g>
</svg>
