<svg width="64" height="64" viewBox="0 0 64 64" fill="none" xmlns="http://www.w3.org/2000/svg">
<mask id="mask0_31_383" style="mask-type:alpha" maskUnits="userSpaceOnUse" x="0" y="0" width="64" height="64">
<rect width="64" height="64" fill="white"/>
</mask>
<g mask="url(#mask0_31_383)">
<path d="M24 56V50.6667H16V45.3333H21.3333V18.6667H16V13.3333H24V8H29.3333V13.3333H34.6667V8H40V13.6667C42.3111 14.2889 44.2222 15.544 45.7333 17.432C47.2444 19.3218 48 21.5111 48 24C48 25.2889 47.7778 26.5218 47.3333 27.6987C46.8889 28.8773 46.2667 29.9333 45.4667 30.8667C47.0222 31.8 48.2773 33.0667 49.232 34.6667C50.1884 36.2667 50.6667 38.0444 50.6667 40C50.6667 42.9333 49.6222 45.4444 47.5333 47.5333C45.4444 49.6222 42.9333 50.6667 40 50.6667V56H34.6667V50.6667H29.3333V56H24ZM26.6667 29.3333H37.3333C38.8 29.3333 40.056 28.8107 41.1013 27.7653C42.1449 26.7218 42.6667 25.4667 42.6667 24C42.6667 22.5333 42.1449 21.2773 41.1013 20.232C40.056 19.1884 38.8 18.6667 37.3333 18.6667H26.6667V29.3333ZM26.6667 45.3333H40C41.4667 45.3333 42.7227 44.8116 43.768 43.768C44.8116 42.7227 45.3333 41.4667 45.3333 40C45.3333 38.5333 44.8116 37.2773 43.768 36.232C42.7227 35.1884 41.4667 34.6667 40 34.6667H26.6667V45.3333Z" fill="white"/>
</g>
</svg>
