<svg width="64" height="64" viewBox="0 0 64 64" fill="none" xmlns="http://www.w3.org/2000/svg">
<mask id="mask0_31_380" style="mask-type:alpha" maskUnits="userSpaceOnUse" x="0" y="0" width="64" height="64">
<rect width="64" height="64" fill="#D9D9D9"/>
</mask>
<g mask="url(#mask0_31_380)">
<path d="M2.66675 53.3333V45.8666C2.66675 44.3555 3.05608 42.9662 3.83475 41.6986C4.61164 40.4328 5.64453 39.4666 6.93341 38.8C9.68897 37.4222 12.489 36.3884 15.3334 35.6986C18.1779 35.0106 21.0667 34.6666 24.0001 34.6666C26.9334 34.6666 29.8223 35.0106 32.6667 35.6986C35.5112 36.3884 38.3112 37.4222 41.0667 38.8C42.3556 39.4666 43.3885 40.4328 44.1654 41.6986C44.9441 42.9662 45.3334 44.3555 45.3334 45.8666V53.3333H2.66675ZM50.6667 53.3333V45.3333C50.6667 43.3777 50.1227 41.4995 49.0348 39.6986C47.945 37.8995 46.4001 36.3555 44.4001 35.0666C46.6667 35.3333 48.8001 35.7884 50.8001 36.432C52.8001 37.0773 54.6667 37.8666 56.4001 38.8C58.0001 39.6889 59.2223 40.6773 60.0667 41.7653C60.9112 42.8551 61.3334 44.0444 61.3334 45.3333V53.3333H50.6667ZM24.0001 32C21.0667 32 18.5556 30.9555 16.4667 28.8666C14.3779 26.7777 13.3334 24.2666 13.3334 21.3333C13.3334 18.4 14.3779 15.8888 16.4667 13.8C18.5556 11.7111 21.0667 10.6666 24.0001 10.6666C26.9334 10.6666 29.4445 11.7111 31.5334 13.8C33.6223 15.8888 34.6667 18.4 34.6667 21.3333C34.6667 24.2666 33.6223 26.7777 31.5334 28.8666C29.4445 30.9555 26.9334 32 24.0001 32ZM50.6667 21.3333C50.6667 24.2666 49.6223 26.7777 47.5334 28.8666C45.4445 30.9555 42.9334 32 40.0001 32C39.5112 32 38.889 31.9448 38.1334 31.8346C37.3779 31.7226 36.7556 31.6 36.2668 31.4666C37.4668 30.0444 38.3885 28.4666 39.0321 26.7333C39.6774 25 40.0001 23.2 40.0001 21.3333C40.0001 19.4666 39.6774 17.6666 39.0321 15.9333C38.3885 14.2 37.4668 12.6222 36.2668 11.2C36.889 10.9777 37.5112 10.8328 38.1334 10.7653C38.7556 10.6995 39.3779 10.6666 40.0001 10.6666C42.9334 10.6666 45.4445 11.7111 47.5334 13.8C49.6223 15.8888 50.6667 18.4 50.6667 21.3333ZM8.00008 48H40.0001V45.8666C40.0001 45.3777 39.8783 44.9333 39.6348 44.5333C39.3894 44.1333 39.0667 43.8222 38.6667 43.6C36.2668 42.4 33.8445 41.4995 31.4001 40.8986C28.9556 40.2995 26.489 40 24.0001 40C21.5112 40 19.0445 40.2995 16.6001 40.8986C14.1556 41.4995 11.7334 42.4 9.33342 43.6C8.93341 43.8222 8.61164 44.1333 8.36808 44.5333C8.12275 44.9333 8.00008 45.3777 8.00008 45.8666V48ZM24.0001 26.6666C25.4667 26.6666 26.7227 26.144 27.7681 25.0986C28.8116 24.0551 29.3334 22.8 29.3334 21.3333C29.3334 19.8666 28.8116 18.6115 27.7681 17.568C26.7227 16.5226 25.4667 16 24.0001 16C22.5334 16 21.2783 16.5226 20.2347 17.568C19.1894 18.6115 18.6667 19.8666 18.6667 21.3333C18.6667 22.8 19.1894 24.0551 20.2347 25.0986C21.2783 26.144 22.5334 26.6666 24.0001 26.6666Z" fill="#4D4D4D"/>
</g>
</svg>
