<svg width="21" height="22" viewBox="0 0 21 22" fill="none" xmlns="http://www.w3.org/2000/svg">
<g clip-path="url(#clip0_809_7452)">
<path d="M20.1787 6.06096C20.6317 6.06096 20.9989 5.67627 20.9989 5.20171V4.2995C20.9989 1.92875 19.1578 0 16.8948 0C16.8948 0 4.03797 0.00201923 4.00627 0.00592881C2.92406 0.0455401 1.88451 0.532046 1.13519 1.3546C0.36712 2.1977 -0.0332975 3.29427 0.00439032 4.44802C0.00283195 4.46989 0.00201176 16.8412 0.00201176 16.8412C0.00201176 19.6858 2.21103 22 4.92627 22H16.8948C19.1578 22 20.9989 20.0712 20.9989 17.7005V11.1767C20.9989 8.806 19.1578 6.87724 16.8948 6.87724H4.10292C2.78607 6.87724 1.70645 5.79898 1.64506 4.42246C1.61385 3.72252 1.85421 3.05437 2.3218 2.54105C2.79616 2.02035 3.46236 1.72176 4.14951 1.72176C4.17375 1.72176 16.8947 1.71849 16.8947 1.71849C18.2532 1.71849 19.3584 2.87633 19.3584 4.2995V5.20171C19.3585 5.67627 19.7257 6.06096 20.1787 6.06096ZM4.10292 8.59574H16.8948C18.2533 8.59574 19.3585 9.75358 19.3585 11.1767V17.7005C19.3585 19.1237 18.2533 20.2815 16.8948 20.2815H4.92627C3.11554 20.2815 1.64239 18.7382 1.64239 16.8412V7.73997C2.3284 8.27829 3.18078 8.59574 4.10292 8.59574ZM17.7181 14.4386C17.7181 15.0318 17.2591 15.5127 16.6929 15.5127C15.3329 15.4561 15.3333 13.4209 16.6929 13.3646C17.2591 13.3646 17.7181 13.8454 17.7181 14.4386ZM17.7181 4.2995C17.7181 3.82494 17.3509 3.44025 16.8979 3.44025H4.10297C3.01474 3.48562 3.01556 5.11377 4.10297 5.15875H16.8979C17.3509 5.15875 17.7181 4.77406 17.7181 4.2995Z" fill="#4D4D4D"/>
</g>
<defs>
<clipPath id="clip0_809_7452">
<rect width="21" height="22" fill="white"/>
</clipPath>
</defs>
</svg>
